<svg xmlns="http://www.w3.org/2000/svg" width="180" height="64" viewBox="0 0 180 64"><g><g><g><path fill="#40294a" d="M76.83 11.727c0-1.99-1.21-2.812-3.269-2.812h-1.623v5.807h1.623c2.012 0 3.27-.686 3.27-2.995zm14.77-5.03l-.32 2.24h-5.83v4.413h5.076v2.24H85.45v4.642h6.24v2.263h-9.259V6.697zm20.806 13.855c2.058 0 3.338-1.35 3.498-4.916h-6.927c.045 3.544 1.394 4.916 3.429 4.916zm0-14.198c4.093 0 6.608 2.652 6.608 8.048 0 5.693-2.676 8.436-6.54 8.436-4.32 0-6.447-2.995-6.447-8.047 0-.412.046-.916.092-1.35h9.785c-.114-3.383-1.463-4.778-3.727-4.778-1.6 0-2.812.617-3.84 1.395l-1.418-1.715c1.532-1.303 3.246-1.99 5.487-1.99zm13.741 36.718h-3.018V27.274h3.018zm.32-19.32c0 .984-.754 1.762-1.852 1.762-1.074 0-1.83-.778-1.83-1.761 0-1.006.756-1.783 1.83-1.783 1.098 0 1.852.777 1.852 1.783zm17.97 19.32h-3.018V27.274h3.018zm.32-19.32c0 .984-.754 1.762-1.851 1.762-1.075 0-1.83-.778-1.83-1.761 0-1.006.755-1.783 1.83-1.783 1.097 0 1.852.777 1.852 1.783zm-65.685 3.522l-.32 2.4h-4.116v13.398h-3.04V29.674h-4.253v-2.4zm9.945 8.94H82.09c.046 3.543 1.395 4.915 3.43 4.915 2.058 0 3.338-1.349 3.498-4.915zM85.52 26.93c4.092 0 6.607 2.652 6.607 8.048 0 5.692-2.674 8.436-6.538 8.436-4.322 0-6.448-2.995-6.448-8.048 0-.411.046-.914.092-1.349h9.785c-.114-3.384-1.463-4.778-3.727-4.778-1.6 0-2.812.617-3.841 1.394l-1.417-1.714c1.532-1.303 3.247-1.99 5.487-1.99zm18.085 9.077H97.98v7.064H94.96V27.274h3.019v6.332h5.624v-6.332h3.04v15.798h-3.04zm11.271-9.077c2.31 0 3.841.686 5.213 1.943l-1.486 1.715c-1.143-.937-2.241-1.35-3.544-1.35-1.417 0-2.446.641-2.446 1.876 0 1.143.617 1.646 3.246 2.469 2.767.869 4.687 2.012 4.687 4.984 0 2.835-2.217 4.847-5.99 4.847-2.515 0-4.39-.891-5.693-2.172l1.555-1.738c1.166.984 2.424 1.578 4.07 1.578 1.691 0 2.904-.823 2.904-2.354 0-1.327-.664-1.92-3.133-2.676-3.315-1.029-4.755-2.355-4.755-4.755 0-2.63 2.263-4.367 5.372-4.367zm17.993 13.672h6.334l-.343 2.469h-9.008V27.274h3.017zM100.122 22.71l.306 1.145-1.513.405-.38-1.421c-2.507-.004-4.377-.894-5.677-2.172l1.555-1.737c1.166.982 2.423 1.577 4.07 1.577 1.691 0 2.903-.823 2.903-2.355 0-1.326-.663-1.92-3.132-2.675-3.315-1.028-4.756-2.355-4.756-4.755 0-2.63 2.264-4.367 5.373-4.367 2.31 0 3.841.686 5.213 1.943l-1.486 1.715c-1.143-.938-2.241-1.349-3.544-1.349-1.417 0-2.447.64-2.447 1.875 0 1.143.618 1.646 3.247 2.47 2.766.867 4.687 2.011 4.687 4.983 0 2.416-1.61 4.233-4.42 4.718zM79.986 11.727c0 3.635-2.629 5.258-6.196 5.258h-1.852v5.51H68.92V6.697h4.665c3.978 0 6.401 1.623 6.401 5.03z"/></g><g><path fill="#40294a" d="M179.404 56.543h-1.018v-5.628h1.018zm.207-7.66c0 .353-.291.62-.728.62-.424 0-.714-.267-.714-.62s.29-.62.714-.62c.437 0 .728.267.728.62zm-2.545 2.032l-2.145 5.66c-.448 1.198-1.163 2.033-2.871 2.226l-.122-.706c1.297-.214 1.649-.653 2.024-1.552h-.351l-2.157-5.628h1.09l1.757 4.976 1.72-4.976zm-6.93 5.628h-1.019v-5.628h1.019zm.205-7.66c0 .353-.29.62-.727.62-.424 0-.714-.267-.714-.62s.29-.62.714-.62c.437 0 .727.267.727.62zm-3.538 7.789c-.775 0-1.272-.418-1.272-1.199v-6.826l1.018-.107v6.912c0 .31.12.47.424.47.158 0 .29-.02.412-.064l.266.632c-.23.107-.533.182-.848.182zm-2.653-.985l.387.61a2.67 2.67 0 0 1-1.405.375c-1.054 0-1.684-.546-1.684-1.573V51.61h-1.103v-.696h1.103v-1.294l1.018-.097v1.391h1.539l-.11.696h-1.43v3.445c0 .589.23.867.8.867.303 0 .57-.076.885-.236zm-5.053-3.178v4.034h-1.017v-3.905c0-.867-.4-1.145-1.055-1.145-.75 0-1.26.417-1.695 1.038v4.012h-1.019v-5.628h.873l.085.846c.473-.578 1.139-.974 2-.974 1.162 0 1.828.653 1.828 1.722zm-7.632.781c0-1.134-.51-1.786-1.564-1.786-.885 0-1.478.556-1.563 1.872h3.127zm1.005.257c0 .193-.012.375-.025.493h-4.107c.11 1.358.812 1.893 1.781 1.893.643 0 1.115-.16 1.672-.502l.448.534a3.658 3.658 0 0 1-2.192.707c-1.757 0-2.787-1.102-2.787-2.889 0-1.766.993-2.996 2.617-2.996 1.708 0 2.593 1.06 2.593 2.76zm-8.954-2.107c-.909 0-1.381.545-1.381 1.294 0 .792.509 1.316 1.405 1.316.909 0 1.393-.481 1.393-1.316 0-.834-.472-1.294-1.417-1.294zm2.884-1.124l.302.824c-.509.14-1.102.16-1.841.171.74.289 1.115.76 1.115 1.445 0 1.102-.897 1.893-2.4 1.893a2.83 2.83 0 0 1-.81-.107c-.22.129-.353.332-.353.557 0 .267.194.481.873.481h1.018c1.296 0 2.144.653 2.144 1.53 0 1.081-.981 1.69-2.932 1.69-2.048 0-2.714-.545-2.714-1.68h.921c0 .675.364.975 1.793.975 1.406 0 1.902-.332 1.902-.92 0-.557-.496-.835-1.32-.835h-1.006c-1.115 0-1.624-.493-1.624-1.048 0-.375.242-.728.691-.985-.727-.342-1.066-.834-1.066-1.573 0-1.145 1.017-1.947 2.423-1.947 1.611.032 2.17-.182 2.884-.471zm-8.045 3.584l-1.357-3.948-1.37 3.948zm.908 2.643l-.642-1.883h-3.247l-.654 1.883h-1.067l2.703-7.36h1.332l2.69 7.36zm-9.33-.856l.388.61a2.671 2.671 0 0 1-1.405.375c-1.054 0-1.684-.546-1.684-1.573V51.61h-1.103v-.696h1.103v-1.294l1.018-.097v1.391h1.538l-.109.696h-1.43v3.445c0 .589.23.867.8.867.303 0 .57-.076.885-.236zm-5.718-1.605h-3.247v.086c0 1.134.618 1.787 1.623 1.787.981 0 1.575-.514 1.624-1.873zm1.078-.363c0 1.84-1.066 2.953-2.702 2.953-1.6 0-2.617-1.038-2.617-2.772 0-.17 0-.342.024-.492h4.205c-.085-1.326-.654-1.883-1.648-1.883-.606 0-1.114.14-1.66.524l-.472-.599a3.688 3.688 0 0 1 2.156-.663c1.842 0 2.714 1.123 2.714 2.932zm-8.312 1.754v-6.826L118 48.54v6.912c0 .31.122.47.424.47.158 0 .29-.02.412-.064l.267.632c-.23.107-.533.182-.848.182-.776 0-1.273-.418-1.273-1.199zm-1.26-4.558l-2.18 5.628h-1.236l-2.218-5.628h1.115l1.733 4.826 1.708-4.826zm-10.965 2.825c0 1.487.606 2.204 1.709 2.204 1.102 0 1.72-.717 1.72-2.225 0-1.488-.605-2.204-1.708-2.204-1.09 0-1.721.716-1.721 2.225zm1.72-2.953c1.794 0 2.8 1.134 2.8 2.932 0 1.765-1.03 2.953-2.811 2.953-1.782 0-2.8-1.145-2.8-2.932 0-1.765 1.03-2.953 2.812-2.953zm1.891-1.83c0 .321-.28.567-.654.567-.364 0-.642-.246-.642-.567 0-.32.278-.567.642-.567.375 0 .654.247.654.567zm-2.484 0c0 .321-.279.567-.642.567-.375 0-.655-.246-.655-.567 0-.32.28-.567.655-.567.363 0 .642.247.642.567zm-8.409.974v5.874h.982c1.333 0 2.678-.513 2.678-2.985 0-2.536-1.406-2.889-2.763-2.889zm4.786 2.889c0 3.017-2.108 3.723-3.89 3.723h-1.938v-7.36h1.72c2.085 0 4.108.588 4.108 3.637zm-13.727 3.135c.981 0 1.575-.514 1.623-1.873H86.91v.086c0 1.134.618 1.787 1.624 1.787zm2.701-2.236c0 1.84-1.066 2.953-2.701 2.953-1.6 0-2.617-1.038-2.617-2.772 0-.17 0-.342.024-.492h4.204c-.085-1.326-.654-1.883-1.648-1.883-.605 0-1.114.14-1.66.524l-.472-.599a3.689 3.689 0 0 1 2.157-.663c1.841 0 2.713 1.123 2.713 2.932zm-6.372-2.932c.217 0 .448.022.63.064l-.182.878a2.238 2.238 0 0 0-.558-.065c-.811 0-1.272.503-1.562 1.584v3.295H82.17v-5.628h.873l.097 1.177c.34-.867.933-1.305 1.72-1.305zm-4.29.813l-3.38 4.184h3.404l-.12.759H76.04v-.674l3.368-4.194h-3.09v-.76h4.254zm-6.022-.685zm0 0v5.628h-.871l-.086-.909c-.472.685-1.078 1.038-1.999 1.038-1.127 0-1.78-.621-1.78-1.723v-4.034h1.017v3.938c0 .802.315 1.102 1.042 1.102.727 0 1.26-.417 1.66-1.006v-4.034zm-.472-1.958c0 .321-.279.567-.654.567-.364 0-.642-.246-.642-.567 0-.32.278-.567.642-.567.375 0 .654.247.654.567zm-2.484 0c0 .321-.278.567-.642.567-.376 0-.654-.246-.654-.567 0-.32.278-.567.654-.567.364 0 .642.247.642.567z"/></g><g><path fill="#40294a" d="M27.755 39.9zm-4.474.875c3.447-3.953 8.412-7.46 12.192-11.13-3.759 2.602-9.187 5.871-12.885 9.87a8.374 8.374 0 0 0 .143-3.4c2.143-2.341 4.675-4.63 7.22-6.87 8.426-7.417 17.792-13.746 9.656-22.209-1.769-1.84-4.293-3.553-7.716-5.258l-.047.047-.368-1.374.226-.226c21.735 11.013 17.584 20.897 4.313 32.861-2.707 2.44-5.664 4.663-8.26 6.814a8.365 8.365 0 0 0-4.474.875zm8.563-38.95l-19.9 19.759zM18.734 50.38l.66 1.678-.182-1.659c-.12-2.694.805-5.122 2.331-7.382.554.425 1.148.77 1.769 1.036-2.631 2.99-3.752 6.022-1.64 9.505 1.572 2.595 4.146 5.182 10.337 8.373.051.487.082 1.081.13 1.52l-1.316-.708c-14.836-8-15.884-15.135-11.658-22.017.344.564.76 1.093 1.246 1.573-1.563 2.45-2.329 5.141-1.677 8.081z"/></g><g><path fill="#40294a" d="M22.239 42.454a4.679 4.679 0 0 1 6.593-.257 4.679 4.679 0 0 1-6.593.257z"/></g><g><path fill="#40294a" d="M21.293 41.211a4.679 4.679 0 0 1-1.955-6.301 4.678 4.678 0 0 1 1.955 6.301z"/></g><g><path fill="#94836b" d="M53.296 19.615l-.797.797-.797.797a.558.558 0 0 1-.552.148.559.559 0 0 1-.405-.405l-.29-1.089-.293-1.088a.558.558 0 0 1 .148-.552.557.557 0 0 1 .552-.148l1.09.292 1.088.292c.203.054.35.201.404.404a.556.556 0 0 1-.148.552z"/></g><g><path fill="#94836b" d="M7.314 39.229l.797-.797.797-.797a.556.556 0 0 1 .553-.148c.202.054.349.201.403.404l.292 1.09.292 1.088a.56.56 0 0 1-.149.552.558.558 0 0 1-.552.148l-1.089-.292-1.088-.292a.559.559 0 0 1-.405-.404.56.56 0 0 1 .149-.552z"/></g><g><path fill="#94836b" d="M4.919 36.35l-.002-.002c.82 6.954 1.405 14.872 2.672 21.593l.762-.488a16.375 16.375 0 0 1 4.955-1.897 18.417 18.417 0 0 1 1.868-.293c.542-.058 1.11-.092 1.696-.102a25.408 25.408 0 0 1 2.648.095c.237.02.666.073.953.106a17.461 17.461 0 0 1-1.142-1.38l-.354-.024-.443-.023a24.767 24.767 0 0 0-1.786-.014c-.582.016-1.15.054-1.703.112-.596.064-1.176.151-1.74.26-.562.111-1.112.246-1.647.401a17.399 17.399 0 0 0-3.04 1.205l-.09.045-2.2-18.326-1.407-1.269 1.404 1.255 2.603 2.327.394-.503.299-.383-4.906-4.319-3.186-2.8 10.417-10.342 19.9-19.759-.368-1.374c-2.765 2.758-5.53 5.52-8.297 8.284l-.398.398a41.357 41.357 0 0 0-.532-.306c-.436-.226-.88-.435-1.329-.626-.447-.19-.902-.365-1.361-.524a24.546 24.546 0 0 0-1.408-.44c-.47-.132-.945-.25-1.423-.357-.531-.118-1.06-.222-1.583-.31a37.744 37.744 0 0 0-1.57-.232 44.818 44.818 0 0 0-1.546-.17 58.918 58.918 0 0 0-1.515-.12l-.487-.033H9.79l.612 6.328-5.172.8.628 4.689-2.875 1.883c.433 2.631.877 5.262 1.32 7.892l-.043.044-.914.913L0 31.911l3.696 3.335 1.212 1.093.01.01zm9.774 14.678c-.984.02-1.966.114-2.934.29l-.073.015-1.352-9.761a.558.558 0 0 1-.47.077l-.713-.19c.539 4.205.895 6.994 1.465 11.372l.672-.155a17.106 17.106 0 0 1 3.392-.415c1.207-.028 2.418.06 3.613.246l.082.013a11.632 11.632 0 0 1-.648-1.338 21.545 21.545 0 0 0-3.034-.154zm-7.631-26.18l-.836.837-.862.862-1.074-6.212 1.748-1.145zm4.378-4.379l-.644.646-2.637 2.636-1.544-9.572 3.904-.605zM21.884 10.03zm-9.314 9.31L11.16 7.337l.088.007c.427.034.856.073 1.283.118.432.046.87.099 1.306.159.43.059.868.127 1.31.204.443.079.88.165 1.312.26.48.108.964.23 1.447.366.476.136.951.287 1.424.456.445.16.886.334 1.319.524.418.185.83.384 1.235.6-3.105 3.102-6.21 6.207-9.314 9.31zM44.34 51.41zm9.036-8.88l-1.28 8.803-.074-.014a17.4 17.4 0 0 0-2.437-.254 25.08 25.08 0 0 0-2.767.056c-.96.07-1.64.141-2.293.255l-.185.034c3.01-2.962 6.023-5.92 9.036-8.88zM41.33 54.376l.035-.036 1.186-1.167c.7-.209 1.31-.375 1.936-.506.75-.155 1.527-.262 2.52-.33.982-.068 1.961-.077 2.908-.018.897.056 1.766.173 2.58.358l.67.155c.554-3.912 1.112-7.824 1.672-11.735l1.102-1.082 1.732-1.702-2.413 17.633-.09-.046a17.306 17.306 0 0 0-3.042-1.205 18.768 18.768 0 0 0-1.647-.4 20.375 20.375 0 0 0-1.74-.26c-.586-.062-1.19-.101-1.81-.116a25.316 25.316 0 0 0-1.904.028c-.637.033-1.288.09-1.954.17-.566.068-1.147.155-1.74.259zM32.01 61.93c.051.487.082 1.081.13 1.52 1.977-1.958 4.493-4.444 6.476-6.4l1.15-1.134 1.064-.186c.69-.13 1.373-.24 2.042-.326a31.16 31.16 0 0 1 1.97-.191 25.212 25.212 0 0 1 1.968-.053c.624.008 1.227.042 1.8.103.641.067 1.264.166 1.868.293.603.127 1.189.283 1.757.467.568.184 1.119.396 1.652.634.53.239 1.046.504 1.546.796l.761.488c1.263-6.747 1.985-14.16 2.92-21.046l.047-.047 1.242-1.221 3.836-3.773-4.098-4.222-.88-.907-.004-.003c.45-2.479.906-4.956 1.36-7.433l-2.907-1.83.545-4.698-5.185-.708.48-6.17c-2.032 0-3.386.104-5.47.511-1.622.319-3.188.778-5.027 1.492l-.042.017c.32.328.622.657.902.985a28.7 28.7 0 0 1 1.582-.57c.511-.166 1-.308 1.443-.415.43-.104.866-.198 1.304-.283.44-.086.878-.162 1.309-.23a43.274 43.274 0 0 1 2.584-.322l.091-.01-1.057 10.406.85.228.407.11.553-4.516 3.91.534c-.49 2.982-.983 5.962-1.473 8.944l.826.852-.827-.847-2.801-2.866-.301.3-.462.462 10.77 11.14C52.298 41.966 42.28 51.753 32.01 61.93zM57.29 24.697l-.76-.783c.34-1.697.686-3.394 1.03-5.09l1.764 1.11-1.094 5.732z"/></g><g><path fill="#40294a" d="M47.202 10.12a2.964 2.964 0 1 1 .001 5.929 2.964 2.964 0 0 1 0-5.929z"/></g></g></g></svg>